<svg xmlns="http://www.w3.org/2000/svg" viewBox="0 0 512 512" width="512" height="512">
  <defs>
    <linearGradient id="bg" x1="0%" y1="0%" x2="100%" y2="100%">
      <stop offset="0%" style="stop-color:#0891b2;stop-opacity:1" />
      <stop offset="100%" style="stop-color:#1e293b;stop-opacity:1" />
    </linearGradient>
    <filter id="glow">
      <feGaussianBlur stdDeviation="10" result="coloredBlur"/>
      <feMerge>
        <feMergeNode in="coloredBlur"/>
        <feMergeNode in="SourceGraphic"/>
      </feMerge>
    </filter>
  </defs>
  
  <!-- Background -->
  <rect width="512" height="512" rx="120" ry="120" fill="url(#bg)" />
  
  <!-- Circular Accent -->
  <circle cx="256" cy="256" r="180" fill="none" stroke="#ffffff" stroke-width="4" stroke-opacity="0.1" />
  <circle cx="256" cy="256" r="140" fill="none" stroke="#ffffff" stroke-width="2" stroke-opacity="0.05" />

  <!-- Music Note Icon -->
  <g transform="translate(106, 106) scale(0.6)" filter="url(#glow)">
     <path d="M448 64c0-17.7-14.3-32-32-32H160C142.3 32 128 46.3 128 64V363.6C114.6 356.2 99.4 352 84.1 352C37.7 352 0 389.7 0 436.1c0 46.5 37.7 84.1 84.1 84.1c46.5 0 84.1-37.7 84.1-84.1V192h224v171.6c-13.4-7.4-28.6-11.6-43.9-11.6c-46.5 0-84.1 37.7-84.1 84.1c0 46.5 37.7 84.1 84.1 84.1c46.5 0 84.1-37.7 84.1-84.1V64z" fill="#ffffff"/>
  </g>
</svg>